<svg width="50" height="50" viewBox="0 0 50 50" fill="none" xmlns="http://www.w3.org/2000/svg">
<path d="M34.8065 20.2233C35.6201 19.4097 35.6201 18.0906 34.8065 17.277C33.9929 16.4634 32.6738 16.4634 31.8602 17.277L20.8333 28.3039L18.1398 25.6104C17.3262 24.7968 16.0071 24.7968 15.1935 25.6104C14.3799 26.424 14.3799 27.743 15.1935 28.5566L19.3602 32.7233C20.1738 33.5369 21.4929 33.5369 22.3065 32.7233L34.8065 20.2233Z" fill="#0E0E0E"/>
<path fill-rule="evenodd" clip-rule="evenodd" d="M12.5 8.3335C9.04822 8.3335 6.25 11.1317 6.25 14.5835V35.4168C6.25 38.8686 9.04822 41.6668 12.5 41.6668H37.5C40.9518 41.6668 43.75 38.8686 43.75 35.4168V14.5835C43.75 11.1317 40.9518 8.3335 37.5 8.3335H12.5ZM10.4167 14.5835C10.4167 13.4329 11.3494 12.5002 12.5 12.5002H37.5C38.6506 12.5002 39.5833 13.4329 39.5833 14.5835V35.4168C39.5833 36.5674 38.6506 37.5002 37.5 37.5002H12.5C11.3494 37.5002 10.4167 36.5674 10.4167 35.4168V14.5835Z" fill="#0E0E0E"/>
</svg>
