<svg width="50" height="50" viewBox="0 0 50 50" fill="none" xmlns="http://www.w3.org/2000/svg">
<path d="M33.3333 27.0832C34.4839 27.0832 35.4166 26.1504 35.4166 24.9998C35.4166 23.8492 34.4839 22.9165 33.3333 22.9165H27.0833V14.5832C27.0833 13.4326 26.1506 12.4998 25 12.4998C23.8494 12.4998 22.9166 13.4326 22.9166 14.5832V24.9998C22.9166 26.1504 23.8494 27.0832 25 27.0832H33.3333Z" fill="#0E0E0E"/>
<path fill-rule="evenodd" clip-rule="evenodd" d="M25 4.1665C13.494 4.1665 4.16663 13.4939 4.16663 24.9998C4.16663 36.5058 13.494 45.8332 25 45.8332C36.5059 45.8332 45.8333 36.5058 45.8333 24.9998C45.8333 13.4939 36.5059 4.1665 25 4.1665ZM8.33329 24.9998C8.33329 15.7951 15.7952 8.33317 25 8.33317C34.2047 8.33317 41.6666 15.7951 41.6666 24.9998C41.6666 34.2046 34.2047 41.6665 25 41.6665C15.7952 41.6665 8.33329 34.2046 8.33329 24.9998Z" fill="#0E0E0E"/>
</svg>
