<svg width="50" height="50" viewBox="0 0 50 50" fill="none" xmlns="http://www.w3.org/2000/svg">
<path fill-rule="evenodd" clip-rule="evenodd" d="M20.6672 8.3335C22.773 8.3335 24.7372 9.39387 25.8925 11.1544L27.5909 13.7424C27.976 14.3292 28.6308 14.6827 29.3327 14.6827H39.5833C43.0351 14.6827 45.8333 17.4809 45.8333 20.9327V35.4168C45.8333 38.8686 43.0351 41.6668 39.5833 41.6668H10.4166C6.96485 41.6668 4.16663 38.8686 4.16663 35.4168V14.5835C4.16663 11.1317 6.96485 8.3335 10.4166 8.3335H20.6672ZM22.409 13.4405C22.0239 12.8536 21.3692 12.5002 20.6672 12.5002H10.4166C9.26603 12.5002 8.33329 13.4329 8.33329 14.5835V35.4168C8.33329 36.5674 9.26603 37.5002 10.4166 37.5002H39.5833C40.7339 37.5002 41.6666 36.5674 41.6666 35.4168V20.9327C41.6666 19.7821 40.7339 18.8494 39.5833 18.8494H29.3327C27.2269 18.8494 25.2627 17.789 24.1074 16.0285L22.409 13.4405Z" fill="#0E0E0E"/>
</svg>
