<svg width="16" height="11" viewBox="0 0 16 11" fill="none" xmlns="http://www.w3.org/2000/svg">
<path d="M5.11364 0.70742C5.16111 0.653675 5.21992 0.609859 5.28633 0.578764C5.35273 0.547669 5.42527 0.529978 5.49931 0.52682C5.57336 0.523661 5.64729 0.535103 5.71639 0.560417C5.7855 0.585731 5.84825 0.624362 5.90067 0.673845C5.95308 0.723329 5.994 0.782581 6.02081 0.847823C6.04762 0.913064 6.05974 0.982865 6.05639 1.05277C6.05305 1.12268 6.03431 1.19117 6.00138 1.25386C5.96844 1.31655 5.92203 1.37208 5.86511 1.4169L2.03113 5.04092L14.7038 5.04092C14.8406 5.04777 14.9695 5.10391 15.0637 5.19776C15.158 5.2916 15.2105 5.41602 15.2105 5.54536C15.2105 5.6747 15.158 5.79911 15.0637 5.89296C14.9695 5.98681 14.8406 6.04295 14.7038 6.0498L2.03113 6.0498L5.87112 9.66956C5.96777 9.76512 6.0217 9.89217 6.0217 10.0243C6.0217 10.1564 5.96777 10.2835 5.87112 10.379C5.82183 10.4257 5.76327 10.4628 5.69879 10.488C5.63432 10.5133 5.56519 10.5263 5.49538 10.5263C5.42557 10.5263 5.35645 10.5133 5.29197 10.488C5.2275 10.4628 5.16894 10.4257 5.11965 10.379L0.370387 5.89513C0.319839 5.84919 0.279628 5.7941 0.252162 5.73315C0.224696 5.67219 0.21054 5.60663 0.21054 5.54039C0.21054 5.47415 0.224696 5.40859 0.252162 5.34764C0.279628 5.28669 0.319839 5.23159 0.370387 5.18565L5.11364 0.70742Z" fill="white"/>
</svg>
