<svg width="16" height="11" viewBox="0 0 16 11" fill="none" xmlns="http://www.w3.org/2000/svg">
<path d="M10.3074 10.3452C10.26 10.3989 10.2012 10.4428 10.1348 10.4738C10.0684 10.5049 9.99582 10.5226 9.92177 10.5258C9.84772 10.529 9.77379 10.5175 9.70469 10.4922C9.63558 10.4669 9.57283 10.4283 9.52042 10.3788C9.468 10.3293 9.42709 10.27 9.40027 10.2048C9.37346 10.1395 9.36134 10.0697 9.36469 9.99984C9.36803 9.92993 9.38677 9.86144 9.41971 9.79875C9.45264 9.73606 9.49905 9.68053 9.55598 9.63571L13.39 6.01169L0.717237 6.01169C0.580434 6.00484 0.451628 5.94871 0.357358 5.85486C0.263089 5.76101 0.210541 5.63659 0.210541 5.50725C0.210541 5.37791 0.263089 5.2535 0.357358 5.15965C0.451628 5.0658 0.580434 5.00967 0.717237 5.00281L13.39 5.00281L9.54996 1.38305C9.45331 1.28749 9.39938 1.16044 9.39938 1.02831C9.39938 0.89618 9.45331 0.769131 9.54996 0.67357C9.59925 0.626891 9.65781 0.589856 9.72229 0.564585C9.78676 0.539315 9.85589 0.526306 9.9257 0.526306C9.99551 0.526306 10.0646 0.539315 10.1291 0.564585C10.1936 0.589856 10.2521 0.626891 10.3014 0.67357L15.0507 5.15748C15.1012 5.20342 15.1415 5.25851 15.1689 5.31947C15.1964 5.38042 15.2105 5.44598 15.2105 5.51222C15.2105 5.57846 15.1964 5.64402 15.1689 5.70497C15.1415 5.76593 15.1012 5.82102 15.0507 5.86696L10.3074 10.3452Z" fill="white"/>
</svg>
