<svg width="24" height="24" viewBox="0 0 24 24" fill="none" xmlns="http://www.w3.org/2000/svg">
<path fill-rule="evenodd" clip-rule="evenodd" d="M8.86492 3.35075C8.9416 2.58394 9.58685 2 10.3575 2H13.6425C14.4131 2 15.0584 2.58394 15.1351 3.35074L15.2408 4.40845C15.2587 4.58663 15.371 4.74056 15.5316 4.81972C15.8506 4.97692 16.1576 5.15476 16.4509 5.35149C16.5998 5.45138 16.7895 5.47181 16.953 5.39806L17.9229 4.96033C18.6253 4.64334 19.4536 4.91017 19.839 5.57755L21.4815 8.42247C21.8668 9.08986 21.6837 9.94063 21.058 10.3904L20.1934 11.0119C20.0481 11.1164 19.9709 11.2904 19.9826 11.469C19.9941 11.6445 20 11.8216 20 12C20 12.1784 19.9941 12.3555 19.9826 12.531C19.9709 12.7096 20.0481 12.8836 20.1934 12.9881L21.058 13.6096C21.6837 14.0594 21.8668 14.9102 21.4815 15.5775L19.839 18.4225C19.4536 19.0899 18.6253 19.3567 17.9229 19.0397L16.9529 18.602C16.7895 18.5282 16.5998 18.5486 16.4509 18.6485C16.1576 18.8452 15.8506 19.0231 15.5316 19.1803C15.371 19.2594 15.2587 19.4134 15.2408 19.5915L15.1351 20.6493C15.0584 21.4161 14.4131 22 13.6425 22H10.3575C9.58685 22 8.9416 21.4161 8.86492 20.6493L8.75915 19.5916C8.74133 19.4134 8.62902 19.2594 8.4684 19.1803C8.14938 19.0231 7.84235 18.8452 7.54907 18.6485C7.40016 18.5486 7.21044 18.5282 7.04701 18.6019L6.07703 19.0397C5.37461 19.3567 4.54628 19.0899 4.16097 18.4225L2.51845 15.5775C2.13314 14.9102 2.31622 14.0594 2.94195 13.6096L3.80656 12.9881C3.95185 12.8836 4.02903 12.7096 4.01733 12.531C4.00583 12.3555 3.99999 12.1784 3.99999 12C3.99999 11.8216 4.00583 11.6445 4.01733 11.469C4.02903 11.2905 3.95185 11.1164 3.80656 11.012L2.94195 10.3904C2.31622 9.94063 2.13313 9.08986 2.51845 8.42247L4.16097 5.57755C4.54628 4.91016 5.37461 4.64333 6.07702 4.96033L7.04699 5.39807C7.21042 5.47182 7.40015 5.45139 7.54905 5.35151C7.84234 5.15477 8.14937 4.97692 8.4684 4.81971C8.62903 4.74056 8.74133 4.58662 8.75915 4.40845L8.86492 3.35075ZM12 16C14.2091 16 16 14.2091 16 12C16 9.79086 14.2091 8 12 8C9.79085 8 7.99999 9.79086 7.99999 12C7.99999 14.2091 9.79085 16 12 16Z" fill="#0E0E0E"/>
</svg>
