<svg width="48" height="48" viewBox="0 0 48 48" fill="none" xmlns="http://www.w3.org/2000/svg">
<g clip-path="url(#clip0_166_60)">
<path fill-rule="evenodd" clip-rule="evenodd" d="M31.4657 20.8644C30.8411 22.4865 29.7053 23.861 28.23 24.78C30.5116 25.6394 32.4773 27.1735 33.8654 29.1779C35.2534 31.1823 35.998 33.5619 36 36V38H12V36C12.002 33.5619 12.7466 31.1823 14.1346 29.1779C15.5227 27.1735 17.4884 25.6394 19.77 24.78C18.2947 23.861 17.1589 22.4865 16.5343 20.8644C15.9097 19.2424 15.8305 17.4611 16.3084 15.79C16.7863 14.1189 17.7955 12.6489 19.1833 11.6024C20.571 10.5558 22.2619 9.98978 24 9.98978C25.7381 9.98978 27.429 10.5558 28.8167 11.6024C30.2045 12.6489 31.2137 14.1189 31.6916 15.79C32.1695 17.4611 32.0903 19.2424 31.4657 20.8644ZM19.0112 14.6666C18.3519 15.6533 18 16.8133 18 18C18 19.5913 18.6322 21.1174 19.7574 22.2426C20.8826 23.3679 22.4087 24 24 24C25.1867 24 26.3467 23.6481 27.3334 22.9888C28.3201 22.3295 29.0891 21.3925 29.5433 20.2961C29.9974 19.1998 30.1162 17.9933 29.8847 16.8295C29.6532 15.6656 29.0817 14.5965 28.2426 13.7574C27.4035 12.9182 26.3344 12.3468 25.1705 12.1153C24.0067 11.8838 22.8003 12.0026 21.7039 12.4567C20.6076 12.9109 19.6705 13.6799 19.0112 14.6666ZM16.929 28.9289C15.0536 30.8043 14 33.3478 14 36H34C34 33.3478 32.9464 30.8043 31.071 28.9289C29.1957 27.0536 26.6522 26 24 26C21.3478 26 18.8043 27.0536 16.929 28.9289Z" fill="#8B8F9A"/>
<path fill-rule="evenodd" clip-rule="evenodd" d="M4 0H44C45.0609 0 46.0783 0.421417 46.8284 1.17157C47.5786 1.92172 48 2.93915 48 4V44C48 45.0609 47.5786 46.0783 46.8284 46.8284C46.0783 47.5786 45.0609 48 44 48H4C2.93915 48 1.92172 47.5786 1.17157 46.8284C0.421417 46.0783 0 45.0609 0 44V4C0 2.93915 0.421417 1.92172 1.17157 1.17157C1.92172 0.421417 2.93915 0 4 0ZM45.4142 45.4142C45.7892 45.0392 46 44.5304 46 44V4C46 3.46957 45.7892 2.96085 45.4142 2.58578C45.0391 2.21072 44.5304 2 44 2H4C3.46957 2 2.96088 2.21072 2.58582 2.58578C2.21075 2.96085 2 3.46957 2 4V44C2 44.5304 2.21075 45.0392 2.58582 45.4142C2.96088 45.7893 3.46957 46 4 46H44C44.5304 46 45.0391 45.7893 45.4142 45.4142Z" fill="#8B8F9A"/>
</g>
<defs>
<clipPath id="clip0_166_60">
<rect width="48" height="48" fill="white"/>
</clipPath>
</defs>
</svg>
