<svg width="48" height="48" viewBox="0 0 48 48" fill="none" xmlns="http://www.w3.org/2000/svg">
<path fill-rule="evenodd" clip-rule="evenodd" d="M29.7777 34.6741C30.4355 34.2346 31.2089 34 32 34C33.0609 34 34.0783 34.4214 34.8284 35.1716C35.5786 35.9217 36 36.9391 36 38C36 38.7911 35.7654 39.5645 35.3259 40.2223C34.8864 40.8801 34.2617 41.3928 33.5308 41.6955C32.7999 41.9983 31.9956 42.0775 31.2197 41.9231C30.4437 41.7688 29.731 41.3878 29.1716 40.8284C28.6122 40.269 28.2312 39.5563 28.0768 38.7804C27.9225 38.0044 28.0018 37.2002 28.3045 36.4693C28.6072 35.7384 29.1199 35.1137 29.7777 34.6741ZM30.8889 39.6629C31.2178 39.8827 31.6044 40 32 40C32.5305 40 33.0391 39.7893 33.4142 39.4142C33.7892 39.0391 34 38.5304 34 38C34 37.6044 33.8828 37.2178 33.663 36.8889C33.4432 36.56 33.1309 36.3036 32.7654 36.1523C32.4 36.0009 31.9977 35.9613 31.6098 36.0384C31.2219 36.1156 30.8655 36.3061 30.5858 36.5858C30.3061 36.8655 30.1156 37.2219 30.0385 37.6098C29.9613 37.9978 30.0009 38.3999 30.1522 38.7654C30.3036 39.1308 30.5599 39.4432 30.8889 39.6629Z" fill="#8B8F9A"/>
<path d="M30 27C30 26.7348 29.8947 26.4804 29.7071 26.2929C29.5195 26.1054 29.2652 26 29 26H13C12.7348 26 12.4805 26.1054 12.2929 26.2929C12.1053 26.4804 12 26.7348 12 27C12 27.2652 12.1053 27.5196 12.2929 27.7071C12.4805 27.8946 12.7348 28 13 28H29C29.2652 28 29.5195 27.8946 29.7071 27.7071C29.8947 27.5196 30 27.2652 30 27Z" fill="#8B8F9A"/>
<path d="M13 20H35C35.2652 20 35.5195 20.1054 35.7071 20.2929C35.8947 20.4804 36 20.7348 36 21C36 21.2652 35.8947 21.5196 35.7071 21.7071C35.5195 21.8946 35.2652 22 35 22H13C12.7348 22 12.4805 21.8946 12.2929 21.7071C12.1053 21.5196 12 21.2652 12 21C12 20.7348 12.1053 20.4804 12.2929 20.2929C12.4805 20.1054 12.7348 20 13 20Z" fill="#8B8F9A"/>
<path d="M35 14H13C12.7348 14 12.4805 14.1054 12.2929 14.2929C12.1053 14.4804 12 14.7348 12 15C12 15.2652 12.1053 15.5196 12.2929 15.7071C12.4805 15.8946 12.7348 16 13 16H35C35.2652 16 35.5195 15.8946 35.7071 15.7071C35.8947 15.5196 36 15.2652 36 15C36 14.7348 35.8947 14.4804 35.7071 14.2929C35.5195 14.1054 35.2652 14 35 14Z" fill="#8B8F9A"/>
<path d="M13 8H35C35.2652 8 35.5195 8.10538 35.7071 8.29291C35.8947 8.48044 36 8.73479 36 9C36 9.26521 35.8947 9.51956 35.7071 9.70709C35.5195 9.89462 35.2652 10 35 10H13C12.7348 10 12.4805 9.89462 12.2929 9.70709C12.1053 9.51956 12 9.26521 12 9C12 8.73479 12.1053 8.48044 12.2929 8.29291C12.4805 8.10538 12.7348 8 13 8Z" fill="#8B8F9A"/>
<path fill-rule="evenodd" clip-rule="evenodd" d="M10 0H38C39.0609 0 40.0783 0.421417 40.8284 1.17157C41.5786 1.92172 42 2.93913 42 4V44C42 45.0609 41.5786 46.0783 40.8284 46.8284C40.0783 47.5786 39.0609 48 38 48H10C8.93915 48 7.92169 47.5786 7.17157 46.8284C6.42145 46.0783 6 45.0609 6 44V4C6 2.93913 6.42145 1.92172 7.17157 1.17157C7.92169 0.421417 8.93915 0 10 0ZM39.4142 45.4142C39.7892 45.0391 40 44.5304 40 44V4C40 3.46957 39.7892 2.96086 39.4142 2.58578C39.0391 2.21071 38.5305 2 38 2H10C9.46954 2 8.96088 2.21071 8.58582 2.58578C8.21075 2.96086 8 3.46957 8 4V44C8 44.5304 8.21075 45.0391 8.58582 45.4142C8.96088 45.7893 9.46954 46 10 46H38C38.5305 46 39.0391 45.7893 39.4142 45.4142Z" fill="#8B8F9A"/>
</svg>
