<svg width="48" height="48" viewBox="0 0 48 48" fill="none" xmlns="http://www.w3.org/2000/svg">
<path d="M15.8315 21.5556C15.9413 21.3911 16 21.1978 16 21C16 20.7348 15.8947 20.4804 15.7071 20.2929C15.5195 20.1053 15.2652 20 15 20C14.8022 20 14.6089 20.0587 14.4445 20.1685C14.28 20.2784 14.1518 20.4346 14.0761 20.6173C14.0004 20.8 13.9807 21.0011 14.0192 21.1951C14.0578 21.3891 14.1531 21.5673 14.2929 21.7071C14.4327 21.847 14.611 21.9422 14.8049 21.9808C14.9989 22.0194 15.2 21.9996 15.3827 21.9239C15.5654 21.8482 15.7216 21.72 15.8315 21.5556Z" fill="#8B8F9A"/>
<path d="M21.8315 21.5556C21.9413 21.3911 22 21.1978 22 21C22 20.7348 21.8947 20.4804 21.7071 20.2929C21.5195 20.1053 21.2652 20 21 20C20.8022 20 20.6089 20.0587 20.4445 20.1685C20.28 20.2784 20.1518 20.4346 20.0761 20.6173C20.0004 20.8 19.9807 21.0011 20.0192 21.1951C20.0578 21.3891 20.1531 21.5673 20.2929 21.7071C20.4327 21.847 20.611 21.9422 20.8049 21.9808C20.9989 22.0194 21.2 21.9996 21.3827 21.9239C21.5654 21.8482 21.7216 21.72 21.8315 21.5556Z" fill="#8B8F9A"/>
<path d="M28 21C28 21.1978 27.9413 21.3911 27.8315 21.5556C27.7216 21.72 27.5654 21.8482 27.3827 21.9239C27.2 21.9996 26.9989 22.0194 26.8049 21.9808C26.611 21.9422 26.4327 21.847 26.2929 21.7071C26.1531 21.5673 26.0578 21.3891 26.0192 21.1951C25.9807 21.0011 26.0004 20.8 26.0761 20.6173C26.1518 20.4346 26.28 20.2784 26.4445 20.1685C26.6089 20.0587 26.8022 20 27 20C27.2652 20 27.5195 20.1053 27.7071 20.2929C27.8947 20.4804 28 20.7348 28 21Z" fill="#8B8F9A"/>
<path d="M9.83148 27.5556C9.94135 27.3911 10 27.1978 10 27C10 26.7348 9.89465 26.4804 9.70709 26.2929C9.51953 26.1053 9.2652 26 9 26C8.80219 26 8.60889 26.0587 8.44446 26.1685C8.28003 26.2784 8.15179 26.4346 8.07611 26.6173C8.00043 26.8 7.98065 27.0011 8.01923 27.1951C8.0578 27.3891 8.15308 27.5673 8.29291 27.7071C8.43274 27.847 8.61096 27.9422 8.80493 27.9808C8.9989 28.0194 9.19995 27.9996 9.38269 27.9239C9.56543 27.8482 9.72162 27.72 9.83148 27.5556Z" fill="#8B8F9A"/>
<path d="M16 27C16 27.1978 15.9413 27.3911 15.8315 27.5556C15.7216 27.72 15.5654 27.8482 15.3827 27.9239C15.2 27.9996 14.9989 28.0194 14.8049 27.9808C14.611 27.9422 14.4327 27.847 14.2929 27.7071C14.1531 27.5673 14.0578 27.3891 14.0192 27.1951C13.9807 27.0011 14.0004 26.8 14.0761 26.6173C14.1518 26.4346 14.28 26.2784 14.4445 26.1685C14.6089 26.0587 14.8022 26 15 26C15.2652 26 15.5195 26.1053 15.7071 26.2929C15.8947 26.4804 16 26.7348 16 27Z" fill="#8B8F9A"/>
<path d="M21.8315 27.5556C21.9413 27.3911 22 27.1978 22 27C22 26.7348 21.8947 26.4804 21.7071 26.2929C21.5195 26.1053 21.2652 26 21 26C20.8022 26 20.6089 26.0587 20.4445 26.1685C20.28 26.2784 20.1518 26.4346 20.0761 26.6173C20.0004 26.8 19.9807 27.0011 20.0192 27.1951C20.0578 27.3891 20.1531 27.5673 20.2929 27.7071C20.4327 27.847 20.611 27.9422 20.8049 27.9808C20.9989 28.0194 21.2 27.9996 21.3827 27.9239C21.5654 27.8482 21.7216 27.72 21.8315 27.5556Z" fill="#8B8F9A"/>
<path d="M28 27C28 27.1978 27.9413 27.3911 27.8315 27.5556C27.7216 27.72 27.5654 27.8482 27.3827 27.9239C27.2 27.9996 26.9989 28.0194 26.8049 27.9808C26.611 27.9422 26.4327 27.847 26.2929 27.7071C26.1531 27.5673 26.0578 27.3891 26.0192 27.1951C25.9807 27.0011 26.0004 26.8 26.0761 26.6173C26.1518 26.4346 26.28 26.2784 26.4445 26.1685C26.6089 26.0587 26.8022 26 27 26C27.2652 26 27.5195 26.1053 27.7071 26.2929C27.8947 26.4804 28 26.7348 28 27Z" fill="#8B8F9A"/>
<path d="M39.8315 27.5556C39.9413 27.3911 40 27.1978 40 27C40 26.7348 39.8947 26.4804 39.7071 26.2929C39.5195 26.1053 39.2652 26 39 26C38.8022 26 38.6089 26.0587 38.4445 26.1685C38.28 26.2784 38.1518 26.4346 38.0761 26.6173C38.0004 26.8 37.9807 27.0011 38.0192 27.1951C38.0578 27.3891 38.1531 27.5673 38.2929 27.7071C38.4327 27.847 38.611 27.9422 38.8049 27.9808C38.9989 28.0194 39.2 27.9996 39.3827 27.9239C39.5654 27.8482 39.7216 27.72 39.8315 27.5556Z" fill="#8B8F9A"/>
<path d="M34 21C34 21.1978 33.9413 21.3911 33.8315 21.5556C33.7216 21.72 33.5654 21.8482 33.3827 21.9239C33.2 21.9996 32.9989 22.0194 32.8049 21.9808C32.611 21.9422 32.4327 21.847 32.2929 21.7071C32.1531 21.5673 32.0578 21.3891 32.0192 21.1951C31.9807 21.0011 32.0004 20.8 32.0761 20.6173C32.1518 20.4346 32.28 20.2784 32.4445 20.1685C32.6089 20.0587 32.8022 20 33 20C33.2652 20 33.5195 20.1053 33.7071 20.2929C33.8947 20.4804 34 20.7348 34 21Z" fill="#8B8F9A"/>
<path d="M39.8315 21.5556C39.9413 21.3911 40 21.1978 40 21C40 20.7348 39.8947 20.4804 39.7071 20.2929C39.5195 20.1053 39.2652 20 39 20C38.8022 20 38.6089 20.0587 38.4445 20.1685C38.28 20.2784 38.1518 20.4346 38.0761 20.6173C38.0004 20.8 37.9807 21.0011 38.0192 21.1951C38.0578 21.3891 38.1531 21.5673 38.2929 21.7071C38.4327 21.847 38.611 21.9422 38.8049 21.9808C38.9989 22.0194 39.2 21.9996 39.3827 21.9239C39.5654 21.8482 39.7216 21.72 39.8315 21.5556Z" fill="#8B8F9A"/>
<path d="M10 33C10 33.1978 9.94135 33.3911 9.83148 33.5556C9.72162 33.72 9.56543 33.8482 9.38269 33.9239C9.19995 33.9996 8.9989 34.0194 8.80493 33.9808C8.61096 33.9422 8.43274 33.847 8.29291 33.7071C8.15308 33.5673 8.0578 33.3891 8.01923 33.1951C7.98065 33.0011 8.00043 32.8 8.07611 32.6173C8.15179 32.4346 8.28003 32.2784 8.44446 32.1685C8.60889 32.0587 8.80219 32 9 32C9.2652 32 9.51953 32.1053 9.70709 32.2929C9.89465 32.4804 10 32.7348 10 33Z" fill="#8B8F9A"/>
<path d="M15.8315 33.5556C15.9413 33.3911 16 33.1978 16 33C16 32.7348 15.8947 32.4804 15.7071 32.2929C15.5195 32.1053 15.2652 32 15 32C14.8022 32 14.6089 32.0587 14.4445 32.1685C14.28 32.2784 14.1518 32.4346 14.0761 32.6173C14.0004 32.8 13.9807 33.0011 14.0192 33.1951C14.0578 33.3891 14.1531 33.5673 14.2929 33.7071C14.4327 33.847 14.611 33.9422 14.8049 33.9808C14.9989 34.0194 15.2 33.9996 15.3827 33.9239C15.5654 33.8482 15.7216 33.72 15.8315 33.5556Z" fill="#8B8F9A"/>
<path d="M22 33C22 33.1978 21.9413 33.3911 21.8315 33.5556C21.7216 33.72 21.5654 33.8482 21.3827 33.9239C21.2 33.9996 20.9989 34.0194 20.8049 33.9808C20.611 33.9422 20.4327 33.847 20.2929 33.7071C20.1531 33.5673 20.0578 33.3891 20.0192 33.1951C19.9807 33.0011 20.0004 32.8 20.0761 32.6173C20.1518 32.4346 20.28 32.2784 20.4445 32.1685C20.6089 32.0587 20.8022 32 21 32C21.2652 32 21.5195 32.1053 21.7071 32.2929C21.8947 32.4804 22 32.7348 22 33Z" fill="#8B8F9A"/>
<path d="M27.8315 33.5556C27.9413 33.3911 28 33.1978 28 33C28 32.7348 27.8947 32.4804 27.7071 32.2929C27.5195 32.1053 27.2652 32 27 32C26.8022 32 26.6089 32.0587 26.4445 32.1685C26.28 32.2784 26.1518 32.4346 26.0761 32.6173C26.0004 32.8 25.9807 33.0011 26.0192 33.1951C26.0578 33.3891 26.1531 33.5673 26.2929 33.7071C26.4327 33.847 26.611 33.9422 26.8049 33.9808C26.9989 34.0194 27.2 33.9996 27.3827 33.9239C27.5654 33.8482 27.7216 33.72 27.8315 33.5556Z" fill="#8B8F9A"/>
<path d="M34 33C34 33.1978 33.9413 33.3911 33.8315 33.5556C33.7216 33.72 33.5654 33.8482 33.3827 33.9239C33.2 33.9996 32.9989 34.0194 32.8049 33.9808C32.611 33.9422 32.4327 33.847 32.2929 33.7071C32.1531 33.5673 32.0578 33.3891 32.0192 33.1951C31.9807 33.0011 32.0004 32.8 32.0761 32.6173C32.1518 32.4346 32.28 32.2784 32.4445 32.1685C32.6089 32.0587 32.8022 32 33 32C33.2652 32 33.5195 32.1053 33.7071 32.2929C33.8947 32.4804 34 32.7348 34 33Z" fill="#8B8F9A"/>
<path d="M39.8315 33.5556C39.9413 33.3911 40 33.1978 40 33C40 32.7348 39.8947 32.4804 39.7071 32.2929C39.5195 32.1053 39.2652 32 39 32C38.8022 32 38.6089 32.0587 38.4445 32.1685C38.28 32.2784 38.1518 32.4346 38.0761 32.6173C38.0004 32.8 37.9807 33.0011 38.0192 33.1951C38.0578 33.3891 38.1531 33.5673 38.2929 33.7071C38.4327 33.847 38.611 33.9422 38.8049 33.9808C38.9989 34.0194 39.2 33.9996 39.3827 33.9239C39.5654 33.8482 39.7216 33.72 39.8315 33.5556Z" fill="#8B8F9A"/>
<path d="M10 39C10 39.1978 9.94135 39.3911 9.83148 39.5556C9.72162 39.72 9.56543 39.8482 9.38269 39.9239C9.19995 39.9996 8.9989 40.0194 8.80493 39.9808C8.61096 39.9422 8.43274 39.847 8.29291 39.7071C8.15308 39.5673 8.0578 39.3891 8.01923 39.1951C7.98065 39.0011 8.00043 38.8 8.07611 38.6173C8.15179 38.4346 8.28003 38.2784 8.44446 38.1685C8.60889 38.0587 8.80219 38 9 38C9.2652 38 9.51953 38.1053 9.70709 38.2929C9.89465 38.4804 10 38.7348 10 39Z" fill="#8B8F9A"/>
<path d="M15.8315 39.5556C15.9413 39.3911 16 39.1978 16 39C16 38.7348 15.8947 38.4804 15.7071 38.2929C15.5195 38.1053 15.2652 38 15 38C14.8022 38 14.6089 38.0587 14.4445 38.1685C14.28 38.2784 14.1518 38.4346 14.0761 38.6173C14.0004 38.8 13.9807 39.0011 14.0192 39.1951C14.0578 39.3891 14.1531 39.5673 14.2929 39.7071C14.4327 39.847 14.611 39.9422 14.8049 39.9808C14.9989 40.0194 15.2 39.9996 15.3827 39.9239C15.5654 39.8482 15.7216 39.72 15.8315 39.5556Z" fill="#8B8F9A"/>
<path d="M22 39C22 39.1978 21.9413 39.3911 21.8315 39.5556C21.7216 39.72 21.5654 39.8482 21.3827 39.9239C21.2 39.9996 20.9989 40.0194 20.8049 39.9808C20.611 39.9422 20.4327 39.847 20.2929 39.7071C20.1531 39.5673 20.0578 39.3891 20.0192 39.1951C19.9807 39.0011 20.0004 38.8 20.0761 38.6173C20.1518 38.4346 20.28 38.2784 20.4445 38.1685C20.6089 38.0587 20.8022 38 21 38C21.2652 38 21.5195 38.1053 21.7071 38.2929C21.8947 38.4804 22 38.7348 22 39Z" fill="#8B8F9A"/>
<path d="M27.8315 39.5556C27.9413 39.3911 28 39.1978 28 39C28 38.7348 27.8947 38.4804 27.7071 38.2929C27.5195 38.1053 27.2652 38 27 38C26.8022 38 26.6089 38.0587 26.4445 38.1685C26.28 38.2784 26.1518 38.4346 26.0761 38.6173C26.0004 38.8 25.9807 39.0011 26.0192 39.1951C26.0578 39.3891 26.1531 39.5673 26.2929 39.7071C26.4327 39.847 26.611 39.9422 26.8049 39.9808C26.9989 40.0194 27.2 39.9996 27.3827 39.9239C27.5654 39.8482 27.7216 39.72 27.8315 39.5556Z" fill="#8B8F9A"/>
<path fill-rule="evenodd" clip-rule="evenodd" d="M33 24C32.4067 24 31.8267 24.1759 31.3333 24.5056C30.84 24.8352 30.4554 25.3038 30.2283 25.8519C30.0013 26.4001 29.9419 27.0033 30.0576 27.5853C30.1734 28.1672 30.4591 28.7018 30.8787 29.1213C31.2983 29.5409 31.8328 29.8266 32.4147 29.9424C32.9967 30.0581 33.5999 29.9987 34.1481 29.7716C34.6963 29.5446 35.1648 29.1601 35.4944 28.6667C35.824 28.1734 36 27.5934 36 27C36 26.2043 35.684 25.4413 35.1213 24.8787C34.5588 24.3161 33.7957 24 33 24ZM33 28C32.8022 28 32.6089 27.9413 32.4445 27.8315C32.28 27.7216 32.1519 27.5654 32.0761 27.3827C32.0004 27.2 31.9807 26.9989 32.0192 26.8049C32.0579 26.6109 32.1531 26.4327 32.2929 26.2929C32.4328 26.153 32.611 26.0578 32.8049 26.0192C32.999 25.9806 33.2 26.0004 33.3827 26.0761C33.5654 26.1518 33.7216 26.28 33.8315 26.4444C33.9414 26.6089 34 26.8022 34 27C34 27.2652 33.8947 27.5196 33.7071 27.7071C33.5196 27.8947 33.2653 28 33 28Z" fill="#8B8F9A"/>
<path fill-rule="evenodd" clip-rule="evenodd" d="M42 4H44C45.0609 4 46.0783 4.42142 46.8284 5.17157C47.5786 5.92172 48 6.93915 48 8V44C48 45.0609 47.5786 46.0783 46.8284 46.8284C46.0783 47.5786 45.0609 48 44 48H4C2.93915 48 1.92172 47.5786 1.17157 46.8284C0.421417 46.0783 0 45.0609 0 44V8C0 6.93915 0.421417 5.92172 1.17157 5.17157C1.92172 4.42142 2.93915 4 4 4H6V3C6 2.20435 6.31604 1.44128 6.87866 0.878662C7.44128 0.316071 8.20435 0 9 0C9.79565 0 10.5587 0.316071 11.1213 0.878662C11.684 1.44128 12 2.20435 12 3V4H36V3C36 2.20435 36.316 1.44128 36.8787 0.878662C37.4413 0.316071 38.2043 0 39 0C39.7957 0 40.5587 0.316071 41.1213 0.878662C41.684 1.44128 42 2.20435 42 3V4ZM38.2929 2.29291C38.1053 2.48044 38 2.73477 38 3V7C38 7.26523 38.1053 7.51956 38.2929 7.70709C38.4805 7.89465 38.7348 8 39 8C39.2652 8 39.5195 7.89465 39.7071 7.70709C39.8947 7.51956 40 7.26523 40 7V3C40 2.73477 39.8947 2.48044 39.7071 2.29291C39.5195 2.10535 39.2652 2 39 2C38.7348 2 38.4805 2.10535 38.2929 2.29291ZM8 3V7C8 7.26523 8.10535 7.51956 8.29291 7.70709C8.48047 7.89465 8.7348 8 9 8C9.2652 8 9.51953 7.89465 9.70709 7.70709C9.89465 7.51956 10 7.26523 10 7V3C10 2.73477 9.89465 2.48044 9.70709 2.29291C9.51953 2.10535 9.2652 2 9 2C8.7348 2 8.48047 2.10535 8.29291 2.29291C8.10535 2.48044 8 2.73477 8 3ZM45.4142 45.4142C45.7892 45.0392 46 44.5304 46 44V14H2V44C2 44.5304 2.21075 45.0392 2.58582 45.4142C2.96088 45.7893 3.46957 46 4 46H44C44.5305 46 45.0391 45.7893 45.4142 45.4142ZM2 12H46V8C46 7.46957 45.7892 6.96085 45.4142 6.58578C45.0391 6.21072 44.5305 6 44 6H42V7C42 7.79565 41.684 8.55872 41.1213 9.12134C40.5587 9.68393 39.7957 10 39 10C38.2043 10 37.4413 9.68393 36.8787 9.12134C36.316 8.55872 36 7.79565 36 7V6H12V7C12 7.79565 11.684 8.55872 11.1213 9.12134C10.5587 9.68393 9.79565 10 9 10C8.20435 10 7.44128 9.68393 6.87866 9.12134C6.31604 8.55872 6 7.79565 6 7V6H4C3.46957 6 2.96088 6.21072 2.58582 6.58578C2.21075 6.96085 2 7.46957 2 8V12Z" fill="#8B8F9A"/>
</svg>
